<svg width="100" height="100" viewBox="0 0 100 100" xmlns="http://www.w3.org/2000/svg"><circle cx="80.00" cy="50.00" r = "10" fill="rgba(250,150,0,1)"></circle><circle cx="74.27" cy="67.63" r = "10" fill="rgba(250,150,0,1)"></circle><circle cx="59.27" cy="78.53" r = "10" fill="rgba(250,150,0,1)"></circle><circle cx="40.73" cy="78.53" r = "10" fill="rgba(250,150,0,1)"></circle><circle cx="25.73" cy="67.63" r = "10" fill="rgba(250,150,0,1)"></circle><circle cx="20.00" cy="50.00" r = "10" fill="rgba(250,150,0,1)"></circle><circle cx="25.73" cy="32.37" r = "10" fill="rgba(250,150,0,1)"></circle><circle cx="40.73" cy="21.47" r = "10" fill="rgba(250,150,0,1)"></circle><circle cx="59.27" cy="21.47" r = "10" fill="rgba(250,150,0,1)"></circle><circle cx="74.27" cy="32.37" r = "10" fill="rgba(250,150,0,1)"></circle>
<circle cx="50.00" cy="50.00" r = "30" fill="rgba(250,255,255,1)"></circle><circle cx="75.00" cy="50.00" r = "2" fill="rgba(0,50,255,1)"></circle><circle cx="74.15" cy="56.47" r = "2" fill="rgba(0,50,255,1)"></circle><circle cx="71.65" cy="62.50" r = "2" fill="rgba(0,50,255,1)"></circle><circle cx="67.68" cy="67.68" r = "2" fill="rgba(0,50,255,1)"></circle><circle cx="62.50" cy="71.65" r = "2" fill="rgba(0,50,255,1)"></circle><circle cx="56.47" cy="74.15" r = "2" fill="rgba(0,50,255,1)"></circle><circle cx="50.00" cy="75.00" r = "2" fill="rgba(0,50,255,1)"></circle><circle cx="43.53" cy="74.15" r = "2" fill="rgba(0,50,255,1)"></circle><circle cx="37.50" cy="71.65" r = "2" fill="rgba(0,50,255,1)"></circle><circle cx="32.32" cy="67.68" r = "2" fill="rgba(0,50,255,1)"></circle><circle cx="28.35" cy="62.50" r = "2" fill="rgba(0,50,255,1)"></circle><circle cx="25.85" cy="56.47" r = "2" fill="rgba(0,50,255,1)"></circle><circle cx="25.00" cy="50.00" r = "2" fill="rgba(0,50,255,1)"></circle><circle cx="25.85" cy="43.53" r = "2" fill="rgba(0,50,255,1)"></circle><circle cx="28.35" cy="37.50" r = "2" fill="rgba(0,50,255,1)"></circle><circle cx="32.32" cy="32.32" r = "2" fill="rgba(0,50,255,1)"></circle><circle cx="37.50" cy="28.35" r = "2" fill="rgba(0,50,255,1)"></circle><circle cx="43.53" cy="25.85" r = "2" fill="rgba(0,50,255,1)"></circle><circle cx="50.00" cy="25.00" r = "2" fill="rgba(0,50,255,1)"></circle><circle cx="56.47" cy="25.85" r = "2" fill="rgba(0,50,255,1)"></circle><circle cx="62.50" cy="28.35" r = "2" fill="rgba(0,50,255,1)"></circle><circle cx="67.68" cy="32.32" r = "2" fill="rgba(0,50,255,1)"></circle><circle cx="71.65" cy="37.50" r = "2" fill="rgba(0,50,255,1)"></circle><circle cx="74.15" cy="43.53" r = "2" fill="rgba(0,50,255,1)"></circle>
<circle cx="50.00" cy="50.00" r = "15" fill="rgba(0,250,55,1)"></circle>
</svg>